<svg width="39" height="39" viewBox="0 0 39 39" fill="none" xmlns="http://www.w3.org/2000/svg">
<path fill-rule="evenodd" clip-rule="evenodd" d="M0.168091 32.1665C0.168091 28.7809 2.78247 26.1665 6.16809 26.1665H16.1681C19.5537 26.1665 22.1681 28.7809 22.1681 32.1665V37.1665C22.1681 37.7188 21.7204 38.1665 21.1681 38.1665H1.16809C0.615805 38.1665 0.168091 37.7188 0.168091 37.1665V32.1665ZM6.16809 28.1665C3.88704 28.1665 2.16809 29.8855 2.16809 32.1665V36.1665H20.1681V32.1665C20.1681 29.8855 18.4492 28.1665 16.1681 28.1665H6.16809Z" fill="black"/>
<path fill-rule="evenodd" clip-rule="evenodd" d="M11.1681 12C8.88704 12 7.16809 13.7189 7.16809 16V17.6666C7.16809 19.9477 8.88704 21.6666 11.1681 21.6666C13.4492 21.6666 15.1681 19.9477 15.1681 17.6666V16C15.1681 13.7189 13.4492 12 11.1681 12ZM5.16809 16C5.16809 12.6144 7.78247 10 11.1681 10C14.5537 10 17.1681 12.6144 17.1681 16V17.6666C17.1681 21.0523 14.5537 23.6666 11.1681 23.6666C7.78247 23.6666 5.16809 21.0523 5.16809 17.6666V16Z" fill="black"/>
<path fill-rule="evenodd" clip-rule="evenodd" d="M19.6681 1C19.6681 0.44771 20.1158 0 20.6681 0H37.3348C37.8871 0 38.3348 0.44771 38.3348 1V12.6666C38.3348 13.2189 37.8871 13.6666 37.3348 13.6666H27.6681L21.2681 18.4666C20.9651 18.6939 20.5597 18.7305 20.2209 18.5611C19.8821 18.3917 19.6681 18.0454 19.6681 17.6666V1ZM21.6681 2V15.6666L26.7348 11.8666C26.9079 11.7368 27.1184 11.6666 27.3348 11.6666H36.3348V2H21.6681Z" fill="black"/>
</svg>
