<svg width="36" height="40" viewBox="0 0 36 40" fill="none" xmlns="http://www.w3.org/2000/svg">
<path fill-rule="evenodd" clip-rule="evenodd" d="M25.1681 14.4551V8H2.16809V28H13.4181V30H2.16809V36C2.16809 36.8227 2.84537 37.5 3.66809 37.5H23.6681C24.4908 37.5 25.1681 36.8227 25.1681 36V26.875H27.1681V36C27.1681 37.9273 25.5953 39.5 23.6681 39.5H3.66809C1.7408 39.5 0.168091 37.9273 0.168091 36V3.5C0.168091 1.57272 1.7408 0 3.66809 0H23.6681C25.5953 0 27.1681 1.57272 27.1681 3.5V14.4551H34.0985L32.5152 23.9551H18.9541L17.0791 13.3301H14.1681V11.3301H18.757L19.3085 14.4551H25.1681ZM2.16809 3.5C2.16809 2.67728 2.84537 2 3.66809 2H23.6681C24.4908 2 25.1681 2.67728 25.1681 3.5V6H2.16809V3.5ZM20.632 21.9551L19.6614 16.4551H31.7376L30.8209 21.9551H20.632Z" fill="black"/>
<path fill-rule="evenodd" clip-rule="evenodd" d="M19.3556 26.0001C17.5951 26.0001 16.1681 27.4272 16.1681 29.1876C16.1681 30.948 17.5951 32.3751 19.3556 32.3751C21.116 32.3751 22.5431 30.948 22.5431 29.1876C22.5431 27.4272 21.116 26.0001 19.3556 26.0001ZM18.1681 29.1876C18.1681 28.5318 18.6997 28.0001 19.3556 28.0001C20.0114 28.0001 20.5431 28.5318 20.5431 29.1876C20.5431 29.8434 20.0114 30.3751 19.3556 30.3751C18.6997 30.3751 18.1681 29.8434 18.1681 29.1876Z" fill="black"/>
<path fill-rule="evenodd" clip-rule="evenodd" d="M32.3556 26.0001C30.5951 26.0001 29.1681 27.4272 29.1681 29.1876C29.1681 30.948 30.5951 32.3751 32.3556 32.3751C34.116 32.3751 35.5431 30.948 35.5431 29.1876C35.5431 27.4272 34.116 26.0001 32.3556 26.0001ZM31.1681 29.1876C31.1681 28.5318 31.6997 28.0001 32.3556 28.0001C33.0114 28.0001 33.5431 28.5318 33.5431 29.1876C33.5431 29.8434 33.0114 30.3751 32.3556 30.3751C31.6997 30.3751 31.1681 29.8434 31.1681 29.1876Z" fill="black"/>
</svg>
