<svg width="41" height="32" viewBox="0 0 41 32" fill="none" xmlns="http://www.w3.org/2000/svg">
<path fill-rule="evenodd" clip-rule="evenodd" d="M14.8347 2C11.7051 2 9.16809 4.53705 9.16809 7.6667C9.16809 10.7963 11.7051 13.3333 14.8347 13.3333C17.9643 13.3333 20.5014 10.7963 20.5014 7.6667C20.5014 4.53705 17.9643 2 14.8347 2ZM7.16809 7.6667C7.16809 3.43248 10.6005 1.92995e-09 14.8347 1.92995e-09C19.0689 1.92995e-09 22.5014 3.43248 22.5014 7.6667C22.5014 11.9009 19.0689 15.3333 14.8347 15.3333C10.6005 15.3333 7.16809 11.9009 7.16809 7.6667Z" fill="black"/>
<path fill-rule="evenodd" clip-rule="evenodd" d="M26.0329 0.752201C26.1699 0.217181 26.7147 -0.105499 27.2497 0.031491C28.8988 0.453741 30.3605 1.41284 31.4043 2.75759C32.4481 4.10234 33.0147 5.75625 33.0147 7.45857C33.0147 9.16087 32.4481 10.8148 31.4043 12.1596C30.3605 13.5043 28.8988 14.4634 27.2497 14.8857C26.7147 15.0227 26.1699 14.7 26.0329 14.165C25.8959 13.6299 26.2186 13.0852 26.7536 12.9482C27.9725 12.6361 29.0529 11.9272 29.8244 10.9332C30.5959 9.93927 31.0147 8.71677 31.0147 7.45857C31.0147 6.20037 30.5959 4.97788 29.8244 3.98393C29.0529 2.98998 27.9725 2.28108 26.7536 1.96899C26.2186 1.832 25.8959 1.28723 26.0329 0.752201Z" fill="black"/>
<path fill-rule="evenodd" clip-rule="evenodd" d="M2.4136 22.2455C3.85138 20.8077 5.80143 20 7.83475 20H21.168C23.2014 20 25.1514 20.8077 26.5892 22.2455C28.027 23.6833 28.8347 25.6333 28.8347 27.6667V31C28.8347 31.5523 28.387 32 27.8347 32C27.2824 32 26.8347 31.5523 26.8347 31V27.6667C26.8347 26.1638 26.2377 24.7224 25.175 23.6597C24.1123 22.597 22.6709 22 21.168 22H7.83475C6.33186 22 4.89052 22.597 3.82782 23.6597C2.76511 24.7224 2.16809 26.1638 2.16809 27.6667V31C2.16809 31.5523 1.72037 32 1.16809 32C0.615803 32 0.168091 31.5523 0.168091 31V27.6667C0.168091 25.6333 0.975823 23.6833 2.4136 22.2455Z" fill="black"/>
<path fill-rule="evenodd" clip-rule="evenodd" d="M33.2001 20.7503C33.3382 20.2155 33.8836 19.894 34.4183 20.032C36.0631 20.4567 37.5202 21.4156 38.561 22.7581C39.6017 24.1007 40.1671 25.7508 40.1683 27.4495L40.1684 30.7836C40.1684 31.3359 39.7206 31.7836 39.1684 31.7836C38.6161 31.7836 38.1684 31.3359 38.1684 30.7836V27.451C38.1674 26.1955 37.7495 24.9758 36.9803 23.9835C36.211 22.9912 35.134 22.2824 33.9184 21.9685C33.3836 21.8304 33.062 21.285 33.2001 20.7503Z" fill="black"/>
</svg>
